<svg width="114" height="103" viewBox="0 0 114 103" fill="none" xmlns="http://www.w3.org/2000/svg">
<g clip-path="url(#clip0_7902_127835)">
<path d="M95.2492 67H87.5V82.5H95.2492V67Z" fill="black"/>
<path d="M48.7492 98.0001H56.5H64.2492H72V90.2493H64.2492H56.5H48.7492H41V98.0001H48.7492Z" fill="black"/>
<path d="M64.2492 5H56.5H48.7492H41V12.7492H48.7492H56.5H64.2492H72V5H64.2492Z" fill="black"/>
<path d="M87.5 90.2492V82.5H79.7492H72V90.2492H79.7492H87.5Z" fill="black"/>
<path d="M33.2492 90.2492H41V82.5H33.2492H25.5V90.2492H33.2492Z" fill="black"/>
<path d="M17.75 82.5H25.5008V74.7492V67H17.75V74.7492V82.5Z" fill="black"/>
<path d="M17.75 28.2492V36H25.5008V28.2492V20.5H17.75V28.2492Z" fill="black"/>
<path d="M25.5 12.7493V20.5001H33.2492H41V12.7493H33.2492H25.5Z" fill="black"/>
<path d="M79.7492 12.7493H72V20.5001H79.7492H87.5V12.7493H79.7492Z" fill="black"/>
<path d="M95.2492 20.5H87.5V28.2492V36H95.2492V28.2492V20.5Z" fill="black"/>
<path d="M10 43.7492V51.5V59.2492V67H17.7492V59.2492V51.5V43.7492V36H10V43.7492Z" fill="black"/>
<path d="M95.25 36V43.7492V51.5V59.2492V67H103.001V59.2492V51.5V43.7492V36H95.25Z" fill="black"/>
<path d="M64.25 82.5H56.5008H48.75V90.2492H56.5008H64.25H72.0008V82.5H64.25Z" fill="white"/>
<path d="M48.7492 12.7493H41V20.4984H48.7492V12.7493Z" fill="white"/>
<path d="M87.5008 36.0001V43.7493H79.75V51.5001H72.0008V43.7493H64.25V36.0001H72.0008V28.2493H79.75V20.5001H72.0008V12.7493H64.25H56.5008V20.5001H64.25V28.2493V36.0001H56.5008V43.7493V51.5001V59.2493V67.0001H48.75V74.7493H56.5008H64.25H72.0008V67.0001H64.25V59.2493H72.0008V67.0001H79.75V59.2493H87.5008V67.0001H79.75V74.7493H87.5008H95.25V67.0001V59.2493V51.5001V43.7493V36.0001H87.5008Z" fill="#00A514"/>
<path d="M25.5 74.7493H33.2492V82.5001H41V74.7493V67.0001V59.2493H33.2492H25.5V67.0001V74.7493Z" fill="#00A514"/>
<path d="M48.75 28.2492H41.0008H33.25V20.5H25.5008V28.2492V36H17.75V43.7492V51.5V59.2492H25.5008V51.5H33.25H41.0008V43.7492V36H48.75V28.2492Z" fill="#00A514"/>
<path d="M25.4992 59.2493H17.75V66.9984H25.4992V59.2493Z" fill="#00C8E6"/>
<path d="M33.2492 74.7493H25.5V82.4984H33.2492V74.7493Z" fill="#00C8E6"/>
<path d="M64.2492 20.5001H56.5V12.7493H48.7492V20.5001H41H33.2492V28.2493H41H48.7492V36.0001H41V43.7493V51.5001H33.2492H25.5V59.2493H33.2492H41V67.0001V74.7493V82.5001V90.2493H48.7492V82.5001H56.5H64.2492H72H79.7492H87.5V74.7493H79.7492V67.0001H72V74.7493H64.2492H56.5H48.7492V67.0001H56.5V59.2493V51.5001V43.7493V36.0001H64.2492V28.2493V20.5001Z" fill="#00C8E6"/>
<path d="M79.75 20.5V28.2492H72.0008V36H64.25V43.7492H72.0008V51.5H79.75V43.7492H87.5008V36V28.2492V20.5H79.75Z" fill="#00C8E6"/>
<path d="M72.0008 59.2493H64.25V66.9984H72.0008V59.2493Z" fill="#00C8E6"/>
<path d="M87.4992 59.2493H79.75V66.9984H87.4992V59.2493Z" fill="#00C8E6"/>
</g>
<defs>
<clipPath id="clip0_7902_127835">
<rect width="93" height="93" fill="white" transform="translate(10 5)"/>
</clipPath>
</defs>
</svg>
