<svg width="114" height="103" viewBox="0 0 114 103" fill="none" xmlns="http://www.w3.org/2000/svg">
<g clip-path="url(#clip0_7902_127867)">
<path d="M92.626 60.3755H89.063V63.9263V67.4783V71.0291V74.5811V78.1319H85.5V81.6839V85.2347V88.7867H89.063V92.3386V95.8895H92.626V99.4415V102.992H96.1878H99.7508V99.4415V95.8895V92.3386V88.7867V85.2347V81.6839V78.1319V74.5811H96.1878V71.0291V67.4783V63.9263V60.3755H92.626Z" fill="#E17DD2"/>
<path d="M17.813 60.3755V63.9263V67.4783V71.0291H14.25V74.5811V78.1319V81.6839V85.2347V88.7867V92.3386V95.8895V99.4415V102.992H17.813H21.3749H24.9378V99.4415V95.8895V92.3386V88.7867H28.5008V85.2347V81.6839V78.1319V74.5811V71.0291V67.4783H24.9378H21.3749V63.9263V60.3755H17.813Z" fill="#E17DD2"/>
<path d="M57.0003 67.4783V71.0291H53.4374V74.5811V78.1319H49.8755V81.6839H46.3125V85.2347V88.7867V92.3386V95.8895V99.4414V102.992H49.8755H53.4374H57.0003H60.5633H64.1252H67.6882H71.2501V99.4414V95.8895V92.3386H67.6882V88.7867V85.2347V81.6839H64.1252V78.1319V74.5811H60.5633V71.0291V67.4783H57.0003Z" fill="#E17DD2"/>
<path d="M39.1872 39.0659H35.6253H32.0624H28.4994H24.9375V42.6179V46.1687V49.7207H28.4994V53.2715H32.0624V56.8235H35.6253V60.3754V63.9263V67.4782H32.0624V71.0291V74.581V78.1319V81.6838V85.2347V88.7866H28.4994V92.3386V95.8894V99.4414V102.992H32.0624H35.6253H39.1872H42.7502V99.4414V95.8894V92.3386V88.7866V85.2347V81.6838V78.1319V74.581V71.0291V67.4782V63.9263V60.3754V56.8235V53.2715V49.7207H39.1872V46.1687H35.6253V42.6179H39.1872H42.7502V39.0659H39.1872Z" fill="#A57355"/>
<path d="M64.1246 35.5151V39.066V42.6179V46.1688H60.5627V49.7207H56.9997H53.4367H49.8749V46.1688H46.3119V42.6179H42.75V46.1688V49.7207H46.3119V53.2716V56.8235H49.8749V60.3744H53.4367H56.9997V63.9264H60.5627V67.4783H64.1246V71.0292V74.5811H67.6876V78.132V81.6839H71.2494V85.2348V88.7867V92.3387H74.8124V95.8895V99.4415V102.992H78.3743H81.9373H85.5003H89.0622V99.4415V95.8895H85.5003V92.3387V88.7867H81.9373V85.2348V81.6839H78.3743V78.132V74.5811H74.8124V71.0292V67.4783H71.2494V63.9264H67.6876V60.3744V56.8235V53.2716V49.7207V46.1688V42.6179V39.066V35.5151H64.1246Z" fill="#A57355"/>
<path d="M32.0619 31.9631H28.5V35.5151H32.0619V31.9631Z" fill="#A57355"/>
<path d="M74.813 49.7206V46.1687V42.6178V39.0659V35.515V31.9631V28.4111H71.25V31.9631V35.515V39.0659V42.6178V46.1687V49.7206V53.2715H74.813V49.7206Z" fill="#A57355"/>
<path d="M56.9999 21.3084H60.5628H64.1247V17.7576H60.5628H56.9999H53.4369H49.875V21.3084H53.4369H56.9999Z" fill="#A57355"/>
<path d="M53.438 81.6838H49.875V85.2347H53.438V81.6838Z" fill="black"/>
<path d="M56.9994 85.2349H53.4375V88.7868H56.9994V85.2349Z" fill="black"/>
<path d="M64.1244 85.2349H60.5625V88.7868H64.1244V85.2349Z" fill="black"/>
<path d="M60.563 88.7866H57V92.3375H60.563V88.7866Z" fill="black"/>
<path d="M57.0003 99.4414V102.992H53.4374H49.8755H46.3125V103H71.2501V102.992H67.6882H64.1252H60.5633V99.4414H57.0003Z" fill="black"/>
<path d="M56.9994 95.8894H53.4375V99.4403H56.9994V95.8894Z" fill="black"/>
<path d="M64.1244 95.8894H60.5625V99.4403H64.1244V95.8894Z" fill="black"/>
<path d="M42.75 49.7207V53.2716V56.8235V60.3755V63.9263V67.4783V71.0291V74.5811V78.1319V81.6839V85.2347V88.7867V92.3386V95.8895V99.4414V102.992H46.3119V99.4414H49.8749V95.8895V92.3386V88.7867V85.2347H46.3119V81.6839H49.8749V78.1319H53.4367V74.5811V71.0291H56.9997V67.4783H60.5627V63.9263H56.9997V60.3755H53.4367H49.8749V56.8235H46.3119V53.2716V49.7207H42.75Z" fill="black"/>
<path d="M60.5625 74.5811H64.1244V71.0291V67.4783H60.5625V71.0291V74.5811Z" fill="black"/>
<path d="M64.125 74.5811V78.1319V81.6839V85.2347H67.688V88.7867V92.3386V95.8895V99.4414H71.2499V102.992H74.8128V99.4414V95.8895V92.3386H71.2499V88.7867V85.2347V81.6839H67.688V78.1319V74.5811H64.125Z" fill="black"/>
<path d="M24.9375 88.7866V92.3386V95.8894V99.4414V102.992H28.5005V99.4414V95.8894V92.3386V88.7866H24.9375Z" fill="black"/>
<path d="M28.5027 31.9632H32.0657V35.5151H28.5027V31.9632ZM71.2519 49.7207V28.4123H74.8148V53.2727H71.2519V49.7207ZM49.8773 17.7576H64.127V21.3095H49.8773V17.7576ZM67.69 14.2056H71.253V10.6548H74.8159V14.2056H71.253V17.7576H67.69V14.2056ZM64.127 0H46.3143V3.55195H42.7513V7.1028H39.1894V10.6548H35.6264V17.7576H32.0635V28.4123H28.5005V31.9632H24.9375V39.066H42.7502V35.514H35.6253V31.9621H49.8751V35.514H60.5629V31.9621H64.1259V28.4112H35.6264V24.8593H67.6889V31.9621H64.1259V35.514H67.6889V63.9263H71.2519V67.4772H74.8148V74.58H78.3767V81.6828H81.9397V88.7856H85.5027V78.1308H89.0646V60.3733H96.1894V74.5789H99.7524V102.99H103.314V85.2325H106.877V81.6817H110.44V78.1297H114.002V67.475H110.44V63.9241H106.877V60.3722H103.314V56.8202H99.7524V53.2683H96.1894V35.5107H92.6276V17.7532H89.0646V14.2012H85.5027V17.7532H81.9397V21.3051H78.3767V24.8571H74.8148V21.3051H78.3767V17.7532H81.9397V14.2012H85.5027V10.6504H81.9397V7.09841H78.3767V3.54755H67.6889V0H64.1259H64.127Z" fill="black"/>
<path d="M85.5 95.8894H89.0619V92.3386V88.7866H85.5V92.3386V95.8894Z" fill="black"/>
<path d="M89.0625 95.8894V99.4414V102.992H92.6255V99.4414V95.8894H89.0625Z" fill="black"/>
<path d="M60.5625 39.066V42.6179V46.1688H64.1244V42.6179V39.066V35.5151H60.5625V39.066Z" fill="black"/>
<path d="M53.4369 46.1687H49.875V49.7207H53.4369H56.9999H60.5628V46.1687H56.9999H53.4369Z" fill="black"/>
<path d="M49.8749 39.066V35.5151H46.3119V39.066H42.75V42.6179H46.3119V46.1688H49.8749V42.6179V39.066Z" fill="black"/>
<path d="M35.625 42.6179V46.1688H39.1869V49.7207H42.7499V46.1688V42.6179H39.1869H35.625Z" fill="black"/>
<path d="M21.3746 39.0659H17.8127V42.6179H14.2497V46.1687H10.6878V49.7207V53.2715V56.8235V60.3754H7.12486V63.9263H3.56188V67.4782H0V71.0291H3.56188V74.581H7.12486V78.1319H10.6878V81.6838V85.2347V88.7866V92.3386V95.8894V99.4414V102.992H14.2497V99.4414V95.8894V92.3386V88.7866V85.2347V81.6838V78.1319V74.581V71.0291H17.8127V67.4782V63.9263V60.3754H21.3746V63.9263V67.4782H24.9376H28.4994V71.0291V74.581V78.1319V81.6838V85.2347V88.7866H32.0624V85.2347V81.6838V78.1319V74.581V71.0291V67.4782H35.6254V63.9263V60.3754V56.8235H32.0624V53.2715H28.4994V49.7207H24.9376V46.1687V42.6179V39.0659H21.3746Z" fill="black"/>
<path d="M56.9999 35.5151H53.4369H49.875V39.066V42.6179V46.1688H53.4369H56.9999H60.5628V42.6179V39.066V35.5151H56.9999Z" fill="#B0B0B0"/>
<path d="M74.813 10.6548H71.25V14.2056H74.813V10.6548Z" fill="#3C3C3C"/>
<path d="M71.2505 14.2056H67.6875V17.7575H71.2505V14.2056Z" fill="#3C3C3C"/>
<path d="M78.3755 21.3083H74.8125V24.8603H78.3755V21.3083Z" fill="#3C3C3C"/>
<path d="M81.938 17.7576H78.375V21.3084H81.938V17.7576Z" fill="#3C3C3C"/>
<path d="M85.5005 14.2056H81.9375V17.7575H85.5005V14.2056Z" fill="#3C3C3C"/>
<path d="M60.5626 28.4111H56.9996H53.4366H49.8747H46.3117H42.7499H39.1869H35.625V31.9631V35.515H39.1869H42.7499V39.0659H46.3117V35.515H49.8747V31.9631H53.4366H56.9996H60.5626V35.515H64.1244V31.9631H67.6874V28.4111H64.1244H60.5626Z" fill="#3C3C3C"/>
<path d="M64.1252 85.2349V88.7868H60.5633V92.3388H57.0003V88.7868H53.4374V85.2349H49.8755V88.7868V92.3388V95.8896V99.4416H46.3125V102.992H49.8755H53.4374H57.0003V99.4416H53.4374V95.8896H57.0003V99.4416H60.5633V95.8896H64.1252V99.4416H60.5633V102.992H64.1252H67.6882H71.2501V99.4416H67.6882V95.8896V92.3388V88.7868V85.2349H64.1252Z" fill="#FFD800"/>
<path d="M64.1244 24.8604H60.5625V28.4112H64.1244V24.8604Z" fill="#FFD800"/>
<path d="M60.563 24.8604H57V28.4123H60.563V24.8604Z" fill="#FFAF00"/>
<path d="M67.688 24.8604H64.125V28.4112H67.688V24.8604Z" fill="white"/>
<path d="M42.7499 28.4112H46.3117H49.8747H53.4366H56.9996V24.8604H53.4366H49.8747H46.3117H42.7499H39.1869H35.625V28.4112H39.1869H42.7499Z" fill="white"/>
<path d="M103.313 102.992H10.6875V102.999H103.313V102.992Z" fill="white"/>
</g>
<defs>
<clipPath id="clip0_7902_127867">
<rect width="114" height="103" fill="white"/>
</clipPath>
</defs>
</svg>
