<svg width="114" height="103" viewBox="0 0 114 103" fill="none" xmlns="http://www.w3.org/2000/svg">
<g clip-path="url(#clip0_7902_127765)">
<path d="M45.4852 31.0796V36.1844H42.9268V38.7374H37.8109V36.1844H35.2524V31.0796H32.694V28.5266H30.1366V25.9736H27.5781V51.5001H45.4852V43.8423H48.0426V28.5266H45.4852V31.0796Z" fill="white"/>
<path d="M25.0243 59.158V56.605H9.67566V61.7109H7.11719V94.8953H9.67566V97.4471H17.35V69.3688H19.9084V97.4471H25.0243V92.3423H27.5828V59.158H25.0243Z" fill="#1E1E1E"/>
<path d="M25.0245 23.4216V15.7627H22.4672V18.3157H19.9087V15.7627H14.7918V18.3157H17.3502V20.8686H14.7918V25.9735H12.2344V28.5265H22.4672V25.9735H25.0245V23.4216Z" fill="#6E370F"/>
<path d="M7.11316 51.5H4.55469V56.6049H7.11316V51.5Z" fill="#6E370F"/>
<path d="M7.11719 59.158V61.7109H9.67566V56.605H7.11719V59.158Z" fill="#6E370F"/>
<path d="M27.5819 54.053H25.0234V59.1578H27.5819V54.053Z" fill="#6E370F"/>
<path d="M40.3683 51.5H27.5781V54.053H45.4852V51.5H40.3683Z" fill="white"/>
<path d="M40.3683 48.947H27.5781V51.5H45.4852V48.947H40.3683Z" fill="#FFD800"/>
<path d="M40.3683 46.395H27.5781V48.9469H45.4852V46.395H40.3683Z" fill="white"/>
<path d="M40.3683 43.8423H27.5781V46.3953H45.4852V43.8423H40.3683Z" fill="#FFAF00"/>
<path d="M40.3683 41.2893H27.5781V43.8423H45.4852V41.2893H40.3683Z" fill="white"/>
<path d="M42.1959 38.7373H27.5781V41.2892H48.0426V38.7373H42.1959Z" fill="#FF8205"/>
<path d="M40.3683 36.1843H27.5781V38.7373H45.4852V36.1843H40.3683Z" fill="white"/>
<path d="M42.1959 33.6313H27.5781V36.1843H48.0426V33.6313H42.1959Z" fill="#FA500F"/>
<path d="M40.3683 31.0796H27.5781V33.6315H45.4852V31.0796H40.3683Z" fill="white"/>
<path d="M42.1959 28.5264H27.5781V31.0793H48.0426V28.5264H42.1959Z" fill="#E10500"/>
<path d="M40.3683 25.9736H27.5781V28.5266H45.4852V25.9736H40.3683Z" fill="white"/>
<path d="M91.5345 25.9735V23.4216H86.4187V20.8687H83.8602V23.4216H81.3018V25.9735H73.6274V20.8687H68.5116V23.4216H65.9531V28.5265H68.5116V54.053H91.5345V46.3951H86.4187V41.2892H91.5345V36.1843H94.093V25.9735H91.5345Z" fill="#FFAF00"/>
<path d="M63.3966 56.605H48.0469V94.8953H55.7212V66.8158H58.2797V94.8953H65.954V56.605H63.3966Z" fill="#3C3C3C"/>
<path d="M25.0221 97.447H19.9062V100H25.0221V97.447Z" fill="#828282"/>
<path d="M12.2303 97.447H9.67188V100H17.3462V97.447H12.2303Z" fill="#828282"/>
<path d="M88.9723 54.053H68.5078V94.8951H76.1821V69.3687H78.7406V94.8951H88.9723V56.6049H91.5308V54.053H88.9723Z" fill="#828282"/>
<path d="M83.8605 10.658V8.10498H78.7446V10.658H73.6277V15.7628H71.0703V18.3158H76.1862V20.8688H83.8605V18.3158H86.4189V13.2109H83.8605V10.658Z" fill="#A57355"/>
<path d="M50.608 23.4216H45.4922V28.5265H50.608V23.4216Z" fill="#A57355"/>
<path d="M86.4205 94.895H81.3047V97.448H86.4205V94.895Z" fill="#A57355"/>
<path d="M76.1862 94.895H71.0703V97.448H76.1862V94.895Z" fill="#A57355"/>
<path d="M91.535 36.1843V54.053H88.9766V59.1578H91.535V56.6049H94.0935V36.1843H91.535Z" fill="#A57355"/>
<path d="M60.8381 13.2109H58.2797V10.658H50.6053V15.7628H48.0469V20.8688H50.6053V25.9736H53.1638V28.5266H58.2797V25.9736H60.8381V20.8688H63.3966V15.7628H60.8381V13.2109Z" fill="#E1B496"/>
<path d="M88.9792 41.2893H86.4219V46.3953H91.5377V41.2893H88.9792Z" fill="#E1B496"/>
<path d="M27.5819 97.447H25.0234V100H27.5819V97.447Z" fill="#828282"/>
<path d="M50.604 97.447H42.9297V100H55.7209V97.447H50.604Z" fill="#828282"/>
<path d="M63.3971 97.447H58.2812V100H65.9556V97.447H63.3971Z" fill="#828282"/>
<path d="M58.2797 13.2108H60.8381V15.7627H63.3966V8.10486H60.8381V5.55298H50.6053V8.10486H48.0469V15.7627H50.6053V10.6578H58.2797V13.2108Z" fill="#828282"/>
<path d="M45.4852 64.2627V61.7108H42.9268V59.1578H45.4852V54.053H27.5781V71.9216H48.0426V66.8157H45.4852V64.2627Z" fill="#FA500F"/>
<path d="M94.0897 82.1313H91.5312V84.6843H94.0897V82.1313Z" fill="#FFD800"/>
<path d="M14.7928 23.4216H12.2344V25.9746H14.7928V23.4216Z" fill="#E10500"/>
<path d="M25.023 25.9736H22.4656V28.5266H12.2328V25.9736H9.67432V31.0796H4.55847V33.6315H2V51.5001H7.11585V56.605H25.023V54.0531H27.5814V28.5266H25.023V25.9736Z" fill="#E10500"/>
<path d="M96.6509 79.5793H88.9766V82.1312H99.2094V79.5793H96.6509Z" fill="#E10500"/>
<path d="M27.5828 13.2108V10.6578H25.0243V5.55298H12.2341V8.10486H9.67566V13.2108H7.11719V18.3157H9.67566V23.4216H14.7926V20.8687H17.35V18.3157H14.7926V15.7627H19.9084V18.3157H22.4669V15.7627H27.5828V13.2108Z" fill="black"/>
<path d="M32.694 94.895H27.5781V99.9999H32.694V94.895Z" fill="black"/>
<path d="M42.9294 94.895H37.8125V99.9999H42.9294V94.895Z" fill="black"/>
<path d="M73.6277 13.2108V10.6578H78.7446V8.10486H83.8605V13.2108H86.4189V5.55298H78.7446V3H73.6277V5.55298H71.0703V15.7627H73.6277V13.2108Z" fill="black"/>
<path d="M81.302 25.9735V23.4216H83.8605V20.8686H76.1862V18.3157H71.0703V20.8686H73.6277V25.9735H81.302Z" fill="black"/>
<path d="M71.0663 97.447H68.5078V100H76.1821V97.447H71.0663Z" fill="black"/>
<path d="M50.6053 94.895H48.0469V97.4469H55.7212V94.895H50.6053Z" fill="black"/>
<path d="M60.8397 94.895H58.2812V97.4469H65.9556V94.895H60.8397Z" fill="black"/>
<path d="M68.5125 46.3951V28.5265H65.954V23.4216H60.8381V25.9735H58.2797V28.5265H53.1638V25.9735H50.6053V28.5265H48.0469V56.6049H65.954V48.947H68.5125V46.3951Z" fill="black"/>
<path d="M86.4179 66.8157V77.0265H83.8594V79.5795H91.5337V77.0265H88.9752V74.4735H91.5337V77.0265H94.0922V74.4735H96.6495V77.0265H94.0922V79.5795H101.766V77.0265H99.208V66.8157H96.6495V69.3687H94.0922V71.9216H91.5337V69.3687H88.9752V66.8157H86.4179Z" fill="black"/>
<path d="M109.441 84.6843H106.883V87.2373H109.441V84.6843Z" fill="black"/>
<path d="M112.004 87.2373H109.445V92.3422H112.004V87.2373Z" fill="black"/>
<path d="M106.883 94.8953V97.4471H109.441V92.3423H106.883V94.8953Z" fill="black"/>
<path d="M94.0908 82.1313V84.6843H91.5324V82.1313H88.9739V92.3422H86.4165V97.447H78.7422V100H106.881V97.447H104.324V94.8951V87.2373H101.765V82.1313H94.0908Z" fill="black"/>
<path d="M9.67053 25.9736H4.55469V31.0785H9.67053V25.9736Z" fill="#FAE1D2"/>
<path d="M27.5741 25.9736H25.0156V28.5266H27.5741V25.9736Z" fill="#FAE1D2"/>
<path d="M37.8109 20.8689V18.3159H35.2524V20.8689H32.694V18.3159H30.1366V15.7629H27.5781V25.9738H30.1366V28.5267H32.694V31.0797H35.2524V23.4219H37.8109V20.8689Z" fill="#FAE1D2"/>
<path d="M37.8125 71.9219V94.8954H40.3699V89.7894H42.9283V71.9219H37.8125Z" fill="#FAE1D2"/>
<path d="M27.5781 71.9219V89.7894H30.1366V94.8954H32.694V71.9219H27.5781Z" fill="#FAE1D2"/>
<path d="M45.4882 43.8423V59.158H42.9297V61.7109H45.4882V66.8158H48.0455V43.8423H45.4882Z" fill="#FAE1D2"/>
<path d="M42.9268 18.3158V13.2109H40.3683V10.658H30.1366V13.2109H27.5781V15.7628H30.1366V18.3158H32.694V20.8688H35.2524V18.3158H37.8109V23.4218H35.2524V36.1844H37.8109V38.7374H42.9268V36.1844H45.4852V18.3158H42.9268Z" fill="#FF8205"/>
</g>
<defs>
<clipPath id="clip0_7902_127765">
<rect width="110" height="97" fill="white" transform="translate(2 3)"/>
</clipPath>
</defs>
</svg>
